# xmcd
#
# Track frame offsets: 
#        150
#        13399
#        34869
#        52520
#        70477
#        84737
#        99159
#        114326
#        128959
#        144935
#        157593
#        173876
#        188031
#        205500
#        221710
#        234505
#        245396
#        266124
#        278181
#        295181
#
# Disc length: 4119 seconds
#
# Revision: 2
# Processed by: cddbd v1.5.2PL0 Copyright (c) Steve Scherf et al.
# Submitted via: ExactAudioCopyFreeDBPlugin 1.0
#
DISCID=16101514
DTITLE=Various Artist - Trucker and Country Songs Vol. 1
DYEAR=1999
DGENRE=Country
TTITLE0=Jennifer Weatherly - No One Has To Tell You
TTITLE1=Jeff Turner - The Ballad Of Billy And Manuela Marie
TTITLE2=Joyce 'n' Webber - Who Turned The Light Out In The Moon
TTITLE3=Gunther Gabriel - Intercity Linie Nr. 4
TTITLE4=Rebecca Holden - This World Needs A Rehearsal
TTITLE5=Jo Quint - Am Lagerfeuer
TTITLE6=John Brack - Take Me Back
TTITLE7=Cissy - Daddy ist auf der Autobahn
TTITLE8=Texas Radio - Hard Price To Pay
TTITLE9=John Brack and Bjoro Haland - Dialing On That Telephone
TTITLE10=Sammy's Saloon - Treasures
TTITLE11=Tennessee - Chilly Lady
TTITLE12=Gunther Gabriel - Komm unter meine Decke
TTITLE13=Billy Troy - Under One Moon
TTITLE14=Rebecca Holden - The Highway Runs Both Ways
TTITLE15=Joyce 'n' Webber - The Yellow Rose Of Texas
TTITLE16=Val and Bird - Betty Lou
TTITLE17=The Cumberland Boys - I Shall Not Be Moved
TTITLE18=The J.B. Band - Stolen Love
TTITLE19=Tex Robinson - Sing Me Back Home
EXTD=
EXTT0=
EXTT1=
EXTT2=
EXTT3=
EXTT4=
EXTT5=
EXTT6=
EXTT7=
EXTT8=
EXTT9=
EXTT10=
EXTT11=
EXTT12=
EXTT13=
EXTT14=
EXTT15=
EXTT16=
EXTT17=
EXTT18=
EXTT19=
PLAYORDER=
